<?xml version="1.0" standalone="no"?>
<!DOCTYPE svg PUBLIC "-//W3C//DTD SVG 20010904//EN"
 "http://www.w3.org/TR/2001/REC-SVG-20010904/DTD/svg10.dtd">
<svg version="1.0" xmlns="http://www.w3.org/2000/svg"
 width="1200.000000pt" height="1200.000000pt" viewBox="0 0 1200.000000 1200.000000"
 preserveAspectRatio="xMidYMid meet">
<metadata>
Created by potrace 1.14, written by Peter Selinger 2001-2017
</metadata>
<g transform="translate(0.000000,1200.000000) scale(0.100000,-0.100000)"
fill="#000000" stroke="none">
<path d="M5890 9576 c-34 -16 -56 -38 -91 -91 -26 -38 -45 -73 -43 -77 2 -3 0
-8 -4 -10 -5 -1 -33 -45 -63 -96 -30 -51 -64 -110 -77 -130 -12 -20 -31 -54
-42 -74 -24 -45 -31 -49 -83 -54 -23 -2 -48 -6 -55 -9 -16 -6 -75 55 -233 237
-38 43 -145 162 -159 176 -19 20 -74 42 -103 42 -35 0 -102 -36 -121 -65 -14
-21 -133 -334 -141 -370 -1 -5 -7 -23 -13 -38 -7 -16 -12 -30 -12 -32 0 -2 -9
-29 -20 -59 -22 -58 -16 -54 -137 -91 -9 -3 -170 111 -256 181 -9 8 -22 14
-27 14 -6 0 -10 4 -10 8 0 5 -22 24 -50 43 -27 19 -50 37 -50 42 0 4 -7 7 -15
7 -8 0 -15 4 -15 8 0 19 -79 45 -123 40 -79 -9 -124 -67 -142 -183 -2 -16 -9
-61 -15 -100 -15 -94 -19 -123 -24 -167 -3 -21 -7 -46 -10 -55 -7 -22 -17 -86
-20 -131 -4 -38 3 -32 -69 -71 -49 -27 -61 -30 -74 -19 -9 7 -18 12 -20 10 -2
-1 -54 22 -116 52 -151 72 -311 148 -314 147 -2 0 -17 6 -34 13 -24 10 -42 11
-68 4 -86 -24 -127 -86 -124 -188 5 -190 14 -452 17 -488 2 -23 0 -42 -3 -42
-3 0 -18 -10 -31 -22 -70 -62 -57 -59 -145 -38 -44 10 -125 30 -180 44 -55 14
-111 27 -125 30 -14 3 -55 13 -91 22 -89 22 -133 14 -180 -36 -53 -56 -57 -91
-24 -235 15 -70 37 -162 39 -170 2 -5 6 -28 11 -50 4 -22 14 -65 22 -95 30
-117 29 -133 -14 -188 l-38 -50 -85 3 c-47 2 -174 6 -283 10 -207 8 -226 5
-268 -35 -60 -58 -66 -126 -19 -231 18 -41 38 -87 45 -104 15 -34 45 -103 76
-172 12 -27 34 -78 49 -114 l28 -66 -31 -61 c-22 -45 -37 -62 -51 -63 -12 0
-28 -2 -36 -4 -53 -11 -128 -25 -165 -29 -16 -2 -41 -6 -55 -9 -14 -4 -41 -9
-60 -12 -19 -2 -48 -7 -65 -11 -16 -3 -43 -7 -60 -9 -124 -14 -185 -71 -185
-173 0 -33 31 -109 50 -122 4 -3 13 -15 19 -28 7 -13 19 -31 26 -40 44 -54
226 -326 231 -346 4 -18 0 -28 -15 -38 -12 -7 -21 -16 -21 -19 0 -4 -30 -38
-67 -77 -38 -38 -117 -123 -178 -187 -60 -65 -135 -144 -165 -176 -30 -31
-102 -108 -160 -170 -58 -61 -142 -151 -188 -198 -46 -47 -90 -99 -98 -115
-43 -79 5 -225 112 -344 137 -152 242 -260 645 -662 256 -256 557 -555 670
-665 112 -110 224 -224 249 -253 25 -30 90 -101 144 -158 93 -98 134 -127 122
-86 -3 9 -10 37 -15 62 -12 52 -55 166 -71 185 -5 6 -7 15 -3 18 3 4 1 12 -5
20 -6 7 -32 55 -58 107 -26 52 -50 97 -53 100 -3 3 -12 15 -18 28 -30 53 -41
71 -102 161 -35 53 -67 98 -72 99 -5 2 -9 9 -9 17 0 7 -6 18 -14 25 -8 6 -43
53 -77 103 -35 51 -67 94 -71 95 -4 2 -8 8 -8 12 0 5 -31 59 -70 120 -38 61
-70 113 -70 116 0 3 -5 10 -10 17 -13 15 -72 114 -108 181 -15 28 -29 53 -33
56 -13 11 -145 281 -176 360 -18 47 -36 108 -39 136 l-6 50 53 53 c60 59 89
78 89 60 0 -28 80 -167 123 -214 10 -11 26 -32 35 -47 9 -16 20 -28 24 -28 4
0 8 -7 8 -15 0 -9 7 -18 15 -21 8 -4 15 -12 15 -20 0 -8 4 -14 8 -14 5 0 30
-29 57 -65 26 -36 51 -65 56 -65 5 0 9 -5 9 -10 0 -6 9 -21 21 -33 11 -12 39
-47 62 -77 23 -30 57 -71 74 -90 18 -19 36 -43 39 -52 3 -10 9 -18 13 -18 4 0
25 -24 46 -52 22 -29 47 -60 55 -68 8 -9 31 -36 50 -60 19 -23 47 -57 61 -74
94 -110 186 -225 238 -297 33 -46 64 -88 69 -94 4 -5 26 -34 47 -63 45 -59 60
-66 50 -21 -4 17 -9 39 -10 48 -2 9 -4 17 -5 19 -2 1 -4 7 -5 12 -1 6 -4 12
-5 15 -1 3 -3 8 -5 13 -3 11 -14 41 -42 112 -46 116 -115 252 -213 420 -118
202 -340 648 -340 682 0 7 6 6 18 -3 9 -8 31 -21 47 -29 17 -8 32 -18 35 -21
5 -6 246 -128 255 -129 3 -1 22 -8 42 -17 44 -19 42 -18 68 -28 11 -4 53 -53
92 -108 40 -56 83 -113 95 -127 13 -14 35 -41 49 -60 79 -105 258 -295 390
-414 65 -60 239 -191 283 -213 17 -9 33 -19 36 -22 9 -11 156 -80 186 -87 16
-4 34 -9 39 -13 12 -7 18 -8 49 -10 25 -1 55 -26 98 -82 156 -202 459 -497
593 -579 22 -13 42 -26 45 -30 33 -36 268 -148 350 -165 8 -2 15 -4 15 -5 0
-1 11 -4 25 -5 14 -2 43 -7 65 -10 193 -32 416 33 569 165 81 70 186 183 186
200 0 6 5 10 10 10 6 0 10 7 10 15 0 8 3 15 8 15 6 0 72 110 72 122 0 2 -12 3
-27 2 -16 0 -45 3 -66 8 -20 4 -54 11 -75 14 -20 3 -62 12 -92 21 -30 8 -62
16 -70 18 -8 2 -15 4 -15 5 0 1 -7 3 -15 5 -39 7 -136 40 -141 48 -3 4 -10 7
-15 6 -9 -2 -40 9 -109 40 -22 10 -59 26 -82 36 -24 10 -43 23 -43 28 0 6 -3
8 -6 5 -7 -8 -129 56 -226 119 -24 15 -50 32 -59 38 -102 63 -264 191 -252
198 4 3 37 8 73 12 36 4 76 9 90 11 87 10 112 13 170 19 36 3 81 8 100 10 19
3 62 7 95 10 33 3 78 7 100 10 22 3 65 7 96 9 32 3 81 7 110 10 51 5 143 12
284 21 33 2 116 7 185 10 68 3 126 8 128 9 2 2 -3 10 -10 17 -32 34 -69 90
-64 97 5 9 446 14 446 6 0 -3 -18 -32 -40 -64 -41 -60 -50 -81 -27 -62 29 24
173 57 302 70 111 10 480 4 480 -8 0 -1 18 -3 40 -5 49 -5 99 -11 145 -19 54
-10 193 -35 215 -40 33 -7 199 -47 213 -52 20 -6 -90 -138 -197 -238 -25 -22
-58 -53 -74 -68 -17 -16 -33 -28 -36 -28 -5 0 -21 -12 -77 -59 -46 -38 -263
-158 -349 -192 -11 -5 -38 -15 -60 -24 -59 -24 -228 -68 -310 -80 -11 -2 -35
-6 -53 -9 -32 -6 -166 -15 -242 -16 l-35 0 56 -53 c131 -122 325 -235 469
-272 90 -24 106 -27 205 -41 35 -5 197 -5 240 0 52 6 127 19 175 31 11 3 28 7
38 9 88 22 263 95 355 148 26 15 52 28 57 28 6 0 10 5 10 10 0 6 6 10 13 10 7
0 23 9 35 20 12 11 24 20 27 20 12 0 186 131 285 214 13 12 103 100 200 196
96 96 191 182 210 191 19 9 68 33 108 53 39 20 72 32 72 28 0 -4 4 -2 8 4 4 6
41 28 82 50 41 21 81 44 88 51 7 7 20 13 28 13 8 0 14 5 14 10 0 6 7 10 15 10
8 0 15 4 15 9 0 5 8 12 18 15 22 8 44 22 121 76 35 25 73 52 85 60 24 16 108
81 116 90 3 3 28 23 55 45 95 76 338 328 369 383 5 10 15 22 21 28 6 6 31 41
55 76 37 56 54 71 114 102 91 47 127 68 144 84 7 6 20 12 28 12 8 0 14 4 14 8
0 5 16 17 35 28 19 10 35 22 35 26 0 5 6 8 14 8 8 0 16 3 18 8 6 13 79 64 85
59 3 -3 -1 -23 -8 -44 -7 -21 -14 -42 -15 -48 -3 -13 -101 -273 -113 -300 -5
-11 -49 -110 -97 -220 -48 -110 -90 -202 -93 -205 -3 -3 -7 -12 -9 -20 -2 -8
-8 -16 -13 -18 -5 -2 -9 -8 -9 -12 0 -5 -24 -59 -54 -120 -30 -60 -52 -110
-51 -110 2 0 -11 -35 -29 -79 -28 -66 -45 -115 -50 -141 -1 -3 -4 -9 -7 -15
-5 -8 -22 -69 -35 -127 -1 -5 -2 -9 -4 -10 -7 -9 -9 -58 -2 -58 5 0 24 24 42
52 19 29 53 83 77 120 24 37 43 71 43 76 0 4 8 17 18 28 9 10 30 39 47 64 16
25 32 47 35 50 6 6 79 111 100 144 8 13 74 109 146 212 214 308 264 383 264
393 0 5 7 11 15 15 8 3 15 10 15 15 0 5 20 39 45 75 25 37 45 71 45 76 0 6 4
10 9 10 5 0 13 9 16 20 3 11 13 27 22 35 8 9 16 21 17 28 1 7 9 23 19 37 9 13
17 29 17 35 0 19 22 34 34 24 6 -5 26 -21 44 -35 35 -29 36 -33 22 -174 -1 -8
-13 -58 -27 -110 -13 -52 -26 -102 -28 -110 -2 -8 -11 -35 -20 -60 -9 -25 -17
-49 -19 -55 -6 -24 -59 -181 -65 -190 -3 -5 -6 -15 -7 -21 -1 -6 -8 -27 -17
-45 -8 -19 -20 -47 -27 -64 -7 -16 -15 -37 -16 -46 -2 -9 -16 -45 -32 -80 -16
-35 -40 -91 -53 -124 -20 -50 -117 -256 -149 -316 -29 -54 -133 -328 -145
-382 -2 -12 -16 -67 -30 -122 -25 -96 -43 -245 -30 -245 12 0 84 89 98 120 4
8 15 27 25 41 9 15 41 67 71 115 48 78 120 189 144 219 7 9 56 77 101 140 8
11 80 112 160 225 79 113 149 210 153 215 5 6 18 25 28 43 11 17 22 32 25 32
3 0 14 16 24 35 11 19 23 35 28 35 4 0 8 5 8 10 0 6 18 35 40 65 22 30 40 59
40 65 0 5 4 10 8 10 5 0 20 17 33 37 57 86 234 348 239 353 6 5 37 53 55 82 5
9 36 58 68 108 31 49 57 94 57 99 0 5 4 11 8 13 5 2 21 34 36 71 30 77 37 166
16 207 -15 30 -50 70 -62 70 -7 0 -27 15 -62 45 -6 6 -28 21 -48 35 -21 14
-38 28 -38 33 0 4 -4 7 -10 7 -10 0 -173 121 -178 133 -2 4 -10 7 -17 7 -7 0
-15 3 -17 8 -1 4 -28 25 -58 47 -30 22 -60 44 -67 50 -6 5 -37 28 -68 50 -31
22 -67 48 -78 58 -12 11 -34 25 -49 33 -16 8 -28 18 -28 22 0 4 -25 23 -55 42
-30 19 -55 38 -55 43 0 4 -6 7 -12 7 -18 0 -88 68 -89 86 -2 15 -5 31 -9 39
-9 17 -1 36 35 86 22 31 46 65 53 75 7 11 37 55 68 99 160 233 164 241 169
284 8 82 -52 166 -127 175 -18 3 -33 5 -33 6 0 1 -9 3 -20 4 -30 4 -87 15
-115 21 -14 4 -43 8 -65 11 -22 2 -95 14 -163 26 l-123 21 -16 36 c-9 20 -20
38 -24 41 -22 17 -18 54 16 132 20 46 43 99 52 118 8 19 26 58 39 87 13 28 24
54 24 57 0 3 13 32 28 64 75 154 61 246 -46 301 -21 11 -212 10 -498 -4 -44
-2 -85 0 -90 3 -5 4 -27 28 -48 54 -32 40 -37 52 -30 75 4 16 9 35 10 43 1 8
7 35 14 60 7 25 14 56 16 70 2 14 7 36 11 50 10 39 11 43 16 70 3 14 15 68 27
120 28 120 30 147 12 190 -16 40 -36 61 -80 84 -40 21 -62 20 -163 -5 -46 -11
-91 -22 -99 -24 -18 -4 -309 -75 -331 -81 -9 -2 -27 5 -40 16 -13 12 -36 31
-50 43 -30 26 -28 -24 -15 411 6 190 5 201 -15 243 -12 25 -32 49 -45 55 -13
6 -24 14 -24 17 0 14 -98 11 -126 -4 -16 -8 -32 -15 -36 -15 -4 0 -89 -40
-190 -88 -256 -123 -250 -121 -267 -114 -9 3 -28 14 -43 24 -14 10 -31 18 -36
18 -18 0 -25 19 -38 100 -3 19 -9 60 -14 90 -5 30 -12 73 -15 95 -3 23 -7 51
-10 63 -2 13 -9 60 -16 105 -6 45 -15 86 -19 91 -5 5 -6 15 -3 22 9 23 -42 89
-83 109 -25 12 -51 16 -81 12 -44 -5 -62 -17 -357 -240 -38 -29 -86 -64 -107
-79 l-39 -27 -62 22 -63 22 -23 65 c-13 36 -25 72 -27 80 -2 8 -18 51 -34 95
-17 44 -31 86 -31 93 0 6 -5 12 -12 12 -6 0 -9 3 -6 6 7 7 -52 173 -72 200 -8
12 -31 30 -50 41 -32 17 -49 19 -116 15 -23 -2 -81 -55 -159 -146 -27 -32 -66
-75 -85 -96 -19 -20 -57 -63 -85 -95 -84 -96 -95 -106 -113 -106 -25 0 -114
10 -117 13 -24 36 -65 111 -65 118 0 6 -4 10 -10 10 -5 0 -10 6 -10 14 0 8 -3
16 -7 18 -5 2 -19 23 -32 48 -14 25 -27 47 -31 50 -3 3 -14 21 -23 40 -10 19
-27 49 -37 65 -11 17 -23 37 -27 45 -32 70 -82 118 -131 126 -15 3 -32 6 -37
8 -6 2 -31 -6 -55 -18z m2841 -5678 c-18 -13 -47 -35 -64 -50 -17 -16 -35 -28
-40 -28 -5 0 -14 -6 -22 -12 -26 -26 -67 -52 -84 -55 -9 -1 -46 -9 -81 -18
-36 -9 -78 -18 -94 -21 -16 -3 -40 -10 -53 -15 -12 -4 -24 -5 -24 -1 -7 39 -3
114 5 120 11 7 20 9 71 16 17 2 53 10 80 16 28 6 61 13 75 15 14 2 72 15 130
29 132 31 142 31 101 4z m-5326 -24 c17 -3 46 -9 65 -14 20 -5 53 -12 75 -16
39 -5 51 -7 110 -19 50 -9 55 -13 55 -45 0 -33 -56 -118 -79 -119 -37 -2 -165
86 -266 182 -49 46 -49 47 -20 42 17 -3 44 -8 60 -11z"/>
</g>
</svg>
